<svg xmlns="http://www.w3.org/2000/svg" xmlns:xlink="http://www.w3.org/1999/xlink" version="1.1" x="0px" y="0px" viewBox="0 0 100 125" style="enable-background:new 0 0 100 100;" xml:space="preserve">
<path fill="white" d="M83.663,83.54l-3.385-44C80.04,36.434,77.412,34,74.296,34H66v-8c0-8.822-7.178-16-16-16s-16,7.178-16,16v8h-8.296  c-3.116,0-5.744,2.434-5.982,5.54l-3.385,44c-0.128,1.661,0.448,3.314,1.58,4.537S20.653,90,22.319,90h55.361  c1.666,0,3.271-0.701,4.402-1.923S83.791,85.201,83.663,83.54z M38,26c0-6.617,5.383-12,12-12s12,5.383,12,12v8H38V26z   M79.148,85.359C78.766,85.772,78.244,86,77.681,86H22.319c-0.563,0-1.085-0.228-1.468-0.641s-0.57-0.95-0.526-1.512l3.385-44  C23.79,38.811,24.666,38,25.704,38H34v10c0,1.104,0.896,2,2,2s2-0.896,2-2V38h24v10c0,1.104,0.896,2,2,2s2-0.896,2-2V38h8.296  c1.039,0,1.915,0.811,1.994,1.847l3.385,44C79.718,84.409,79.531,84.945,79.148,85.359z"/>
</svg>