<svg xmlns="http://www.w3.org/2000/svg" aria-hidden="true" style="position:absolute;width:0;height:0;overflow:hidden">
  <defs>
    <symbol id="logo" viewBox="0 0 133 32">
      <path fill="#fff" d="M49.071 12.014a3.298 3.298 0 0 0-1.46-1.406c-.619-.336-1.353-.504-2.203-.504-1.468 0-2.645.487-3.529 1.46-.885.955-1.327 2.238-1.327 3.848 0 1.716.46 3.061 1.38 4.034.938.955 2.22 1.433 3.848 1.433 1.115 0 2.052-.283 2.813-.849.778-.566 1.345-1.38 1.698-2.442h-5.759v-3.344h9.872v4.219c-.336 1.132-.911 2.185-1.725 3.158-.796.973-1.813 1.76-3.052 2.362s-2.636.902-4.193.902c-1.84 0-3.485-.398-4.936-1.194a8.813 8.813 0 0 1-3.37-3.37c-.796-1.433-1.194-3.069-1.194-4.909s.398-3.476 1.194-4.909a8.573 8.573 0 0 1 3.37-3.37c1.433-.814 3.069-1.221 4.909-1.221 2.229 0 4.104.54 5.626 1.619 1.539 1.079 2.556 2.574 3.052 4.485h-5.016zm12.386.398a5.862 5.862 0 0 1 1.99-1.911c.796-.478 1.681-.716 2.654-.716v4.803h-1.247c-1.132 0-1.981.248-2.548.743-.566.478-.849 1.327-.849 2.548v6.873h-4.538V9.944h4.538v2.468zm13.554 12.552c-1.451 0-2.76-.31-3.928-.929a6.91 6.91 0 0 1-2.733-2.654c-.655-1.15-.982-2.495-.982-4.034 0-1.521.336-2.857 1.008-4.007.672-1.168 1.592-2.061 2.76-2.68s2.477-.929 3.927-.929 2.76.31 3.928.929a6.817 6.817 0 0 1 2.76 2.68c.672 1.15 1.008 2.486 1.008 4.007s-.345 2.866-1.035 4.034a6.823 6.823 0 0 1-2.786 2.654c-1.168.619-2.477.929-3.928.929zm0-3.927c.867 0 1.601-.318 2.203-.955.619-.637.929-1.548.929-2.733s-.301-2.096-.902-2.733a2.831 2.831 0 0 0-2.176-.955c-.885 0-1.619.318-2.203.955-.584.619-.876 1.53-.876 2.733 0 1.185.283 2.096.849 2.733a2.831 2.831 0 0 0 2.176.955zm31.412-11.093-4.008 14.808H97.4l-2.335-9.607-2.415 9.607h-4.989L83.627 9.944h4.538l2.097 10.588 2.495-10.588h4.803l2.521 10.535 2.07-10.535h4.272zm9.161 3.769h-2.441v11.04h-4.538v-11.04h-1.646V9.945h1.646V9.52c0-1.822.522-3.202 1.566-4.14 1.043-.955 2.574-1.433 4.591-1.433.335 0 .584.009.743.027v3.848c-.866-.053-1.477.071-1.831.372s-.53.84-.53 1.619v.133h2.441v3.768zm17.259-3.769-9.288 21.84h-4.883l3.397-7.537-6.024-14.304h5.069l3.424 9.262 3.396-9.262h4.91z" style="fill:var(--color1, #fff)"/>
      <path fill="#ff6d35" d="M15.667 7.401A7.145 7.145 0 0 1 22.812.256h7.145v7.145a7.145 7.145 0 0 1-14.29 0z" style="fill:var(--color2, #ff6d35)"/>
      <path fill="#5cc97b" d="M22.811 31.687a7.145 7.145 0 0 1-7.145-7.145v-7.145h7.145a7.145 7.145 0 0 1 0 14.29z" style="fill:var(--color3, #5cc97b)"/>
      <path fill="#3d96f4" d="M13.416 15.178C13.416 7.249 7.475.821.147.821v23.442c0 3.964 2.97 7.178 6.634 7.178s6.634-3.214 6.634-7.178v-9.085z" style="fill:var(--color4, #3d96f4)"/>
    </symbol>
    
  </defs>
</svg>
